<svg width="140" height="114" viewBox="0 0 140 114" fill="none" xmlns="http://www.w3.org/2000/svg">
<path d="M57.438 18.9559L24.8928 58.7766C11.0655 56.3605 0.557922 44.2204 0.557922 29.6046C0.557922 13.2587 13.7331 0 29.9761 0C42.4992 0 53.1994 7.87465 57.438 18.9559Z" fill="white"/>
<path d="M93.6325 57.5088L139.442 113.482H101.799C96.6855 113.482 91.9134 111.394 89.0827 107.934L72.2766 87.3222L70.7353 85.4728L69.2088 87.3222L52.4026 107.934C49.572 111.394 44.7998 113.482 39.6869 113.482H2.04346L52.4026 51.8862C53.6772 50.6036 54.8331 49.1867 55.8409 47.6804L55.8706 47.6506L89.0827 7.03939C91.9134 3.57931 96.6855 1.49133 101.799 1.49133H139.442L93.6325 57.4641H93.6622L93.6325 57.5088Z" fill="white"/>
</svg>
