<svg width="214" height="120" viewBox="0 0 214 120" fill="none" xmlns="http://www.w3.org/2000/svg">
<path d="M32.1021 36.058L31.4234 48.7672L31.242 50.0036L24.7082 48.7067L25.3869 35.9976C27.6223 36.0155 29.8622 36.0356 32.1021 36.058Z" fill="#D8D821"/>
<path d="M27.8911 65.154L32.4269 48.7289L39.1622 48.6953L29.3918 83.94L22.6766 84.0005L27.8821 65.1608" fill="#DBE50C"/>
<path d="M27.8868 65.1587L32.4226 48.7291H31.4169C30.4806 48.7291 29.5466 48.7291 28.6103 48.7246H28.5879C27.2932 48.7201 26.0008 48.7157 24.7061 48.7067L25.3848 35.9976C22.6992 45.7097 20.0539 55.4264 17.4243 65.1542L23.7609 65.1677L22.6813 83.9985L27.8868 65.1587Z" fill="#E6FF00"/>
<path d="M42.6902 48.771H52.6197V58.1046L57.4511 48.9009C58.6248 48.444 59.9352 48.1819 61.7629 48.1819C70.1871 48.1819 75.153 53.2709 75.153 61.236V81.404H65.1586V63.7178C65.1586 60.1944 63.1337 57.2534 58.1701 57.2534C55.8182 57.2534 54.0554 57.9075 52.6174 58.7542V81.404H42.688V48.771H42.6902Z" fill="#E6FF00"/>
<path d="M76.7858 48.7715H87.1027L94.5481 69.7906L101.537 48.7715H111.789L104.54 70.3752H94.743L98.6628 81.4067H88.4108L76.7835 48.7737H76.788L76.7858 48.7715Z" fill="#E6FF00"/>
<path d="M111.793 65.0869C111.793 55.7533 119.238 48.1152 130.145 48.1152C134.456 48.1152 136.739 49.0918 138.829 50.1401V59.9329C136.607 58.3672 134.129 57.581 130.859 57.581C124.652 57.581 121.846 60.9095 121.846 65.0869C121.846 69.2643 124.592 72.5928 130.859 72.5928C134.125 72.5928 136.934 71.8066 139.156 70.2409V80.0337C137.066 81.0753 134.456 82.0586 130.142 82.0586C119.236 82.0586 111.791 74.4205 111.791 65.0869H111.793Z" fill="#E6FF00"/>
<path d="M146.603 69.0043V57.843H140.659L156.463 39.3728H156.528V57.1889L161.36 48.7714H166.845V57.843H156.528V67.9628C156.528 71.1591 158.488 72.9869 162.276 72.9869C163.974 72.9869 165.541 72.5949 167.042 71.6183V80.6249C165.147 81.6015 162.795 82.0607 160.381 82.0607C151.959 82.0607 146.599 76.5125 146.599 69.0066H146.603V69.0043Z" fill="#E6FF00"/>
<path d="M170.637 80.2307V71.2891C173.706 72.9847 177.626 73.8358 181.611 73.8358C185.595 73.8358 187.096 73.0496 187.096 71.5511C187.096 70.5745 186.507 69.9205 184.417 69.5263L179.454 68.4847C173.247 67.2461 170.375 64.0453 170.375 58.6919C170.375 52.0372 175.666 48.1846 185.201 48.1846C188.859 48.1846 191.603 48.7087 193.885 49.9474V58.8241C191.466 57.1934 187.416 56.2773 183.891 56.2773C180.365 56.2773 179.252 57.0635 179.252 58.3671C179.252 59.3437 179.906 59.9328 181.604 60.2598L186.37 61.2364C192.774 62.54 195.908 65.481 195.908 71.2891C195.908 78.5978 191.011 81.9913 181.212 81.9913C177.03 81.9913 173.767 81.3372 170.633 80.2285H170.637V80.2307Z" fill="#E6FF00"/>
</svg>
