<svg width="953" height="536" viewBox="0 0 953 536" fill="none" xmlns="http://www.w3.org/2000/svg">
<path d="M143.32 160.98L140.29 217.72L139.48 223.24L110.31 217.45L113.34 160.71C123.32 160.79 133.32 160.88 143.32 160.98Z" fill="#D8D821"/>
<path d="M124.52 290.88L144.77 217.55L174.84 217.4L131.22 374.75L101.24 375.02L124.48 290.91" fill="#DBE50C"/>
<path d="M124.5 290.9L144.75 217.55H140.26C136.08 217.55 131.91 217.55 127.73 217.53H127.63C121.85 217.51 116.08 217.49 110.3 217.45L113.33 160.71C101.34 204.07 89.53 247.45 77.79 290.88L106.08 290.94L101.26 375.01L124.5 290.9Z" fill="#E6FF00"/>
<path d="M190.59 217.74H234.92V259.41L256.49 218.32C261.73 216.28 267.58 215.11 275.74 215.11C313.35 215.11 335.52 237.83 335.52 273.39V363.43H290.9V284.47C290.9 268.74 281.86 255.61 259.7 255.61C249.2 255.61 241.33 258.53 234.91 262.31V363.43H190.58V217.74H190.59Z" fill="#E6FF00"/>
<path d="M342.81 217.74H388.87L422.11 311.58L453.31 217.74H499.08L466.72 314.19H422.98L440.48 363.44H394.71L342.8 217.75H342.82L342.81 217.74Z" fill="#E6FF00"/>
<path d="M499.1 290.58C499.1 248.91 532.34 214.81 581.03 214.81C600.28 214.81 610.47 219.17 619.8 223.85V267.57C609.88 260.58 598.82 257.07 584.22 257.07C556.51 257.07 543.98 271.93 543.98 290.58C543.98 309.23 556.24 324.09 584.22 324.09C598.8 324.09 611.34 320.58 621.26 313.59V357.31C611.93 361.96 600.28 366.35 581.02 366.35C532.33 366.35 499.09 332.25 499.09 290.58H499.1Z" fill="#E6FF00"/>
<path d="M654.51 308.07V258.24H627.97L698.53 175.78H698.82V255.32L720.39 217.74H744.88V258.24H698.82V303.42C698.82 317.69 707.57 325.85 724.48 325.85C732.06 325.85 739.06 324.1 745.76 319.74V359.95C737.3 364.31 726.8 366.36 716.02 366.36C678.42 366.36 654.49 341.59 654.49 308.08H654.51V308.07Z" fill="#E6FF00"/>
<path d="M761.81 358.19V318.27C775.51 325.84 793.01 329.64 810.8 329.64C828.59 329.64 835.29 326.13 835.29 319.44C835.29 315.08 832.66 312.16 823.33 310.4L801.17 305.75C773.46 300.22 760.64 285.93 760.64 262.03C760.64 232.32 784.26 215.12 826.83 215.12C843.16 215.12 855.41 217.46 865.6 222.99V262.62C854.8 255.34 836.72 251.25 820.98 251.25C805.24 251.25 800.27 254.76 800.27 260.58C800.27 264.94 803.19 267.57 810.77 269.03L832.05 273.39C860.64 279.21 874.63 292.34 874.63 318.27C874.63 350.9 852.77 366.05 809.02 366.05C790.35 366.05 775.78 363.13 761.79 358.18H761.81V358.19Z" fill="#E6FF00"/>
<path d="M621.27 388.99H630.53V456.73L636.29 449.09H663.96V457.54H621.28V388.98L621.27 388.99Z" fill="#E6FF00"/>
<path d="M703.64 388.99H715.78L740.37 457.52H730.63L721.48 431.71L715.61 439.54H695.62L689.35 457.52H679.61L703.69 388.99H703.63H703.64ZM721.34 431.2L709.79 398.51L698.44 431.2H721.33H721.34Z" fill="#E6FF00"/>
<path d="M761.54 388.99H787.82C798.66 388.99 806.82 396.43 806.82 406.46C806.82 413.22 802.84 419.28 797.48 421.96C804.93 424.36 810.01 431.09 810.01 438.84C810.01 449.77 801.46 457.52 790.11 457.52H761.54V388.99ZM776.28 418.41H786.44C792.71 418.41 797.59 414.94 797.59 407.87C797.59 400.8 792.51 396.94 786.44 396.94H770.83V425.74L776.31 418.39L776.28 418.42V418.41ZM800.64 438.27C800.64 430.13 795.16 426.24 788.59 426.24H770.78V449.57H788.4C796.05 449.57 800.65 445.6 800.65 438.24V438.27H800.64Z" fill="#E6FF00"/>
<path d="M830.57 454.84V445.32C836.44 448 842.71 449.69 849.57 449.69C859.73 449.69 865.38 445.8 865.38 439.15C865.38 433.88 862.3 430.61 855.44 428.53L846.29 426.05C835.73 422.98 830.57 416.92 830.57 407.57C830.57 395.65 839.63 388.01 855.16 388.01C861.23 388.01 866.99 389.19 871.79 391.67V401.11C867.41 398.52 861.54 396.83 854.77 396.83C845.03 396.83 839.84 400.69 839.84 407.37C839.84 412.05 842.13 415.01 849.38 417.2L858.53 419.68C869.48 422.75 874.65 428.81 874.65 438.05C874.65 450.76 865.5 458.42 849.07 458.42C842.21 458.42 836.14 457.12 830.55 454.84H830.58H830.57Z" fill="#E6FF00"/>
</svg>
